<svg width="26" height="26" viewBox="0 0 26 26" fill="none" xmlns="http://www.w3.org/2000/svg">
<path fill-rule="evenodd" clip-rule="evenodd" d="M24.1423 1.85958C24.689 2.40631 24.689 3.29274 24.1423 3.83948L3.84153 24.1402C3.2948 24.687 2.40837 24.687 1.86163 24.1402C1.3149 23.5935 1.3149 22.7071 1.86163 22.1603L22.1624 1.85958C22.7091 1.31284 23.5956 1.31284 24.1423 1.85958Z" fill="currentColor"/>
<path fill-rule="evenodd" clip-rule="evenodd" d="M1.86161 1.85958C1.31488 2.40631 1.31488 3.29274 1.86161 3.83948L22.1624 24.1402C22.7091 24.687 23.5955 24.687 24.1423 24.1402C24.689 23.5935 24.689 22.7071 24.1423 22.1603L3.84151 1.85958C3.29478 1.31284 2.40835 1.31284 1.86161 1.85958Z" fill="currentColor"/>
</svg>
