<svg xmlns="http://www.w3.org/2000/svg">
<defs>
<clipPath id="clip0_1_1867">
<rect width="24" height="24" fill="white" transform="translate(0.25)"/>
</clipPath>
</defs>
<symbol id="icon_badge" viewBox="0 0 73 72">
<path d="M37 18.3105C33.5013 18.3105 30.0813 19.348 27.1722 21.2918C24.2632 23.2355 21.9959 25.9982 20.657 29.2306C19.3181 32.4629 18.9678 36.0197 19.6504 39.4511C20.3329 42.8825 22.0177 46.0345 24.4916 48.5084C26.9655 50.9823 30.1175 52.6671 33.5489 53.3496C36.9804 54.0322 40.5371 53.6819 43.7695 52.343C47.0018 51.0041 49.7645 48.7368 51.7083 45.8278C53.652 42.9188 54.6895 39.4987 54.6895 36C54.6843 31.3101 52.8189 26.8137 49.5026 23.4974C46.1863 20.1811 41.6899 18.3158 37 18.3105ZM37 51.723C33.8908 51.723 30.8515 50.8011 28.2662 49.0738C25.681 47.3465 23.6661 44.8913 22.4761 42.0189C21.2862 39.1464 20.9747 35.9856 21.5811 32.9362C22.1876 29.8867 23.6846 27.0855 25.8829 24.8868C28.0813 22.6882 30.8823 21.1907 33.9316 20.5839C36.981 19.977 40.1419 20.2881 43.0145 21.4776C45.8871 22.6671 48.3425 24.6817 50.0702 27.2667C51.7979 29.8516 52.7203 32.8909 52.7207 36C52.7161 40.168 51.0584 44.164 48.1111 47.1112C45.1639 50.0584 41.168 51.7162 37 51.7208V51.723Z" fill="currentColor"/>
<path d="M62.5324 40.1091C63.6816 38.9571 64.9844 37.6515 64.9844 36C64.9844 34.3485 63.6816 33.0429 62.5324 31.8937C61.7596 31.1192 60.9608 30.3187 60.7769 29.6308C60.5789 28.8906 60.877 27.7633 61.165 26.6726C61.5925 25.0554 62.0341 23.3826 61.2381 22.0072C60.4298 20.6106 58.7451 20.1561 57.1156 19.7167C56.0395 19.4265 54.9263 19.1261 54.4015 18.6013C53.8767 18.0765 53.5769 16.9639 53.2866 15.8872C52.8473 14.256 52.3928 12.5736 50.9967 11.7652C49.6203 10.9693 47.9474 11.4109 46.3279 11.8378C45.2373 12.1258 44.1089 12.4228 43.3697 12.2259C42.6812 12.042 41.8814 11.2432 41.1068 10.4704C39.9571 9.31837 38.6515 8.01562 37 8.01562C35.3485 8.01562 34.0435 9.31837 32.8938 10.4676C32.1192 11.2404 31.3187 12.0392 30.6308 12.2231C29.8906 12.42 28.7628 12.123 27.6721 11.835C26.0537 11.4075 24.382 10.9654 23.0061 11.7619C21.6094 12.5702 21.1555 14.2549 20.7156 15.8844C20.4259 16.9605 20.1256 18.0742 19.6007 18.5985C19.0759 19.1227 17.9633 19.4231 16.8867 19.7134C15.2554 20.1527 13.5724 20.6072 12.7647 22.0039C11.9688 23.3792 12.4103 25.0521 12.8373 26.6692C13.1253 27.7599 13.4234 28.8877 13.2254 29.628C13.0375 30.3187 12.2404 31.1164 11.4681 31.8937C10.3184 33.0457 9.01562 34.3513 9.01562 36.0028C9.01562 37.6543 10.3184 38.9599 11.4681 40.1119C12.2404 40.8864 13.0392 41.6869 13.2231 42.3748C13.4211 43.1151 13.123 44.2423 12.835 45.3336C12.4081 46.9507 11.9659 48.6231 12.7624 49.9984C13.5702 51.3951 15.2549 51.8496 16.8844 52.2889C17.9605 52.5791 19.0737 52.8795 19.5979 53.4043C20.1222 53.9291 20.4231 55.0423 20.7134 56.1184C21.1527 57.7496 21.6072 59.4321 23.0039 60.2404C24.3792 61.0369 26.0526 60.5947 27.6698 60.1678C28.7599 59.8798 29.8866 59.5811 30.628 59.7797C31.3165 59.9636 32.1169 60.7624 32.8915 61.5352C34.0435 62.6844 35.3485 63.9872 36.9977 63.9872C38.647 63.9872 39.9548 62.6844 41.1068 61.5352C41.8814 60.7624 42.6818 59.9636 43.3697 59.7797C44.1094 59.5817 45.2384 59.8798 46.3279 60.1678C47.9457 60.5959 49.6174 61.0374 50.9933 60.2409C52.39 59.4326 52.8445 57.7479 53.2838 56.1184C53.5741 55.0423 53.8744 53.9291 54.3993 53.4043C54.9241 52.8795 56.0367 52.5797 57.1133 52.2894C58.7446 51.8501 60.427 51.3956 61.2353 49.9995C62.0318 48.6236 61.5903 46.9507 61.1628 45.3307C60.8742 44.2401 60.5766 43.1128 60.7746 42.3726C60.9625 41.6812 61.7596 40.8836 62.5324 40.1091ZM59.2615 45.8325C59.5866 47.0644 59.923 48.3379 59.5337 49.0101C59.1327 49.7031 57.8462 50.0507 56.6031 50.3854C55.2767 50.7431 53.9059 51.1127 53.0093 52.0093C52.1127 52.9059 51.7426 54.2767 51.3854 55.6031C51.0479 56.8468 50.7031 58.1344 50.0101 58.5343C49.3351 58.9236 48.0644 58.5861 46.8331 58.2615C45.4943 57.9077 44.1094 57.5432 42.8635 57.8751C41.6665 58.1946 40.6759 59.1829 39.7186 60.1386C38.7933 61.0616 37.837 62.0156 37 62.0156C36.163 62.0156 35.2067 61.0594 34.282 60.1386C33.3258 59.1823 32.3341 58.1946 31.1365 57.8751C30.789 57.785 30.4312 57.741 30.0722 57.744C29.0859 57.7936 28.1098 57.9675 27.1669 58.2615C25.9356 58.5861 24.6616 58.9219 23.9899 58.5337C23.2964 58.1327 22.9493 56.8462 22.6141 55.6031C22.2569 54.2767 21.8873 52.9059 20.9907 52.0093C20.0941 51.1127 18.7227 50.7426 17.3969 50.3854C16.1532 50.0479 14.8656 49.7031 14.4663 49.0101C14.077 48.3351 14.4134 47.0644 14.7385 45.8331C15.0923 44.4943 15.4585 43.1094 15.1249 41.8635C14.8049 40.6665 13.8171 39.6759 12.8614 38.7186C11.9389 37.7932 10.9844 36.837 10.9844 36C10.9844 35.163 11.9406 34.2067 12.8614 33.2814C13.8177 32.3252 14.8049 31.3335 15.1249 30.1365C15.4585 28.8906 15.0923 27.5057 14.7385 26.1664C14.4134 24.9351 14.0776 23.6621 14.4663 22.9899C14.8673 22.2969 16.1537 21.9493 17.3969 21.6146C18.7232 21.2569 20.0969 20.8873 20.9907 19.9907C21.8845 19.0941 22.2574 17.7232 22.6146 16.3969C22.9521 15.1532 23.2969 13.8656 23.9899 13.4657C24.661 13.0764 25.9351 13.4134 27.1669 13.7385C28.5063 14.0929 29.8917 14.4579 31.1365 14.1249C32.3341 13.8054 33.3241 12.8171 34.282 11.8614C35.2067 10.9384 36.163 9.98437 37 9.98437C37.837 9.98437 38.7933 10.9406 39.7186 11.8614C40.6748 12.8177 41.6665 13.8054 42.8635 14.1249C44.1094 14.4579 45.4943 14.0929 46.8325 13.7385C48.0644 13.4139 49.3373 13.077 50.0101 13.4662C50.7031 13.8673 51.0507 15.1537 51.3854 16.3969C51.7431 17.7232 52.1127 19.0969 53.0093 19.9907C53.9059 20.8845 55.2767 21.2574 56.6031 21.6146C57.8468 21.9521 59.1344 22.2969 59.5343 22.9899C59.923 23.6649 59.5866 24.9356 59.2615 26.1669C58.9077 27.5057 58.5421 28.8906 58.8751 30.1365C59.1946 31.3335 60.1829 32.3241 61.1386 33.2814C62.0616 34.2067 63.0156 35.163 63.0156 36C63.0156 36.837 62.0594 37.7932 61.1386 38.7186C60.1823 39.6748 59.1946 40.6665 58.8751 41.8635C58.5438 43.1089 58.9077 44.4937 59.2615 45.8325Z" fill="currentColor"/>
<path d="M44.6905 28.0518C44.2656 28.0506 43.8447 28.1338 43.4522 28.2965C43.0597 28.4592 42.7034 28.6982 42.404 28.9996L35.263 36.1394L31.5972 32.4736C31.2977 32.1695 30.941 31.9278 30.5477 31.7622C30.1543 31.5966 29.7321 31.5106 29.3053 31.5089C28.8785 31.5073 28.4556 31.5902 28.061 31.7527C27.6664 31.9153 27.3079 32.1543 27.0061 32.4561C26.7043 32.7579 26.4652 33.1164 26.3026 33.511C26.14 33.9056 26.057 34.3284 26.0586 34.7552C26.0602 35.182 26.1462 35.6042 26.3117 35.9976C26.4772 36.391 26.719 36.7477 27.023 37.0473L32.9759 43.0002C33.2762 43.3007 33.6327 43.5391 34.0251 43.7017C34.4176 43.8644 34.8382 43.9481 35.263 43.9481C35.6878 43.9481 36.1085 43.8644 36.5009 43.7017C36.8933 43.5391 37.2499 43.3007 37.5502 43.0002L46.9777 33.5738C47.4299 33.1214 47.7379 32.5451 47.8627 31.9176C47.9875 31.2902 47.9234 30.6399 47.6786 30.0488C47.4338 29.4578 47.0193 28.9526 46.4874 28.5972C45.9556 28.2417 45.3302 28.0519 44.6905 28.0518ZM45.586 32.1811L36.1568 41.6086C35.9156 41.8385 35.5952 41.9668 35.2619 41.9668C34.9287 41.9668 34.6082 41.8385 34.367 41.6086L28.4152 35.6556C28.2976 35.5381 28.2044 35.3986 28.1408 35.245C28.0772 35.0915 28.0445 34.9269 28.0445 34.7607C28.0445 34.5945 28.0772 34.4299 28.1408 34.2764C28.2044 34.1228 28.2976 33.9833 28.4152 33.8658C28.5327 33.7482 28.6722 33.655 28.8258 33.5914C28.9793 33.5278 29.1439 33.4951 29.3101 33.4951C29.4763 33.4951 29.6409 33.5278 29.7944 33.5914C29.948 33.655 30.0875 33.7482 30.205 33.8658L34.5672 38.2274C34.6585 38.3189 34.767 38.3914 34.8864 38.4409C35.0058 38.4904 35.1338 38.5159 35.263 38.5159C35.3923 38.5159 35.5203 38.4904 35.6397 38.4409C35.7591 38.3914 35.8675 38.3189 35.9588 38.2274L43.7967 30.3906C44.0375 30.1601 44.358 30.0314 44.6914 30.0314C45.0247 30.0314 45.3452 30.1601 45.586 30.3906C45.7035 30.5081 45.7968 30.6476 45.8603 30.8011C45.9239 30.9546 45.9567 31.1191 45.9567 31.2853C45.9567 31.4515 45.9239 31.616 45.8603 31.7695C45.7968 31.923 45.7035 32.0625 45.586 32.18V32.1811Z" fill="currentColor"/>
</symbol>
<symbol id="icon_check" viewBox="0 0 28 19">
<path fill-rule="evenodd" clip-rule="evenodd" d="M26.9471 0.45341C27.4938 1.00014 27.4938 1.88657 26.9471 2.43331L11.6344 17.7459C11.0877 18.2927 10.2013 18.2927 9.65455 17.7459L1.05681 9.14819C0.510077 8.60145 0.510077 7.71502 1.05681 7.16829C1.60355 6.62155 2.48998 6.62155 3.03671 7.16829L10.6445 14.7761L24.9672 0.453411C25.5139 -0.0933234 26.4003 -0.093324 26.9471 0.45341Z" fill="currentColor"/>
</symbol>
<symbol id="icon_close" viewBox="0 0 26 26">
<path fill-rule="evenodd" clip-rule="evenodd" d="M24.1423 1.85958C24.689 2.40631 24.689 3.29274 24.1423 3.83948L3.84153 24.1402C3.2948 24.687 2.40837 24.687 1.86163 24.1402C1.3149 23.5935 1.3149 22.7071 1.86163 22.1603L22.1624 1.85958C22.7091 1.31284 23.5956 1.31284 24.1423 1.85958Z" fill="currentColor"/>
<path fill-rule="evenodd" clip-rule="evenodd" d="M1.86161 1.85958C1.31488 2.40631 1.31488 3.29274 1.86161 3.83948L22.1624 24.1402C22.7091 24.687 23.5955 24.687 24.1423 24.1402C24.689 23.5935 24.689 22.7071 24.1423 22.1603L3.84151 1.85958C3.29478 1.31284 2.40835 1.31284 1.86161 1.85958Z" fill="currentColor"/>
</symbol>
<symbol id="icon_lock" viewBox="0 0 16 17">
<path d="M11.9992 7.69961H11.1992V5.29961C11.1992 3.53961 9.75922 2.09961 7.99922 2.09961C6.23922 2.09961 4.79922 3.53961 4.79922 5.29961V7.69961H3.99922C3.59922 7.69961 3.19922 8.09961 3.19922 8.49961V14.0996C3.19922 14.4996 3.59922 14.8996 3.99922 14.8996H11.9992C12.3992 14.8996 12.7992 14.4996 12.7992 14.0996V8.49961C12.7992 8.09961 12.3992 7.69961 11.9992 7.69961ZM8.79922 13.2996H7.19922L7.51922 11.5396C7.11922 11.3796 6.79922 10.8996 6.79922 10.4996C6.79922 9.85961 7.35922 9.29961 7.99922 9.29961C8.63922 9.29961 9.19922 9.85961 9.19922 10.4996C9.19922 10.9796 8.95922 11.3796 8.47922 11.5396L8.79922 13.2996ZM9.59922 7.69961H6.39922V5.29961C6.39922 4.41961 7.11922 3.69961 7.99922 3.69961C8.87922 3.69961 9.59922 4.41961 9.59922 5.29961V7.69961Z" fill="currentColor"/>
</symbol>
<symbol id="icon_modern-house" viewBox="0 0 73 72">
<path d="M10.7031 36.7036V61.313C10.7031 61.574 10.8068 61.8244 10.9914 62.009C11.176 62.1936 11.4264 62.2973 11.6875 62.2973H62.3125C62.5736 62.2973 62.824 62.1936 63.0086 62.009C63.1932 61.8244 63.2969 61.574 63.2969 61.313C63.2969 61.0519 63.1932 60.8015 63.0086 60.6169C62.824 60.4323 62.5736 60.3286 62.3125 60.3286H57.151V42.9473H62.3125C62.5735 42.9472 62.8238 42.8434 63.0084 42.6589C63.193 42.4743 63.2967 42.224 63.2969 41.963V38.1346C63.2969 37.8735 63.1932 37.6231 63.0086 37.4385C62.824 37.2539 62.5736 37.1502 62.3125 37.1502H61.0497V31.7705H62.3125C62.5736 31.7705 62.824 31.6668 63.0086 31.4822C63.1932 31.2976 63.2969 31.0472 63.2969 30.7861V26.9577C63.2969 26.6967 63.1932 26.4463 63.0086 26.2617C62.824 26.0771 62.5736 25.9734 62.3125 25.9734H61.0497V18.8139C61.0497 18.5811 60.9672 18.3559 60.8168 18.1782C60.6665 18.0006 60.458 17.882 60.2284 17.8435L11.8534 9.71711C11.7121 9.69304 11.5673 9.70011 11.429 9.7378C11.2907 9.7755 11.1623 9.84293 11.0528 9.93538C10.9433 10.0278 10.8552 10.1431 10.7948 10.2731C10.7344 10.403 10.7031 10.5446 10.7031 10.688V16.088C10.703 16.3149 10.7813 16.5348 10.9249 16.7105C11.0684 16.8863 11.2683 17.0069 11.4906 17.0521L12.9633 17.3514L13.0583 35.7192H11.6875C11.4264 35.7192 11.176 35.8229 10.9914 36.0075C10.8068 36.1921 10.7031 36.4425 10.7031 36.7036ZM21.7101 60.3286H17.8502V48.4801H21.7101V60.3286ZM27.5984 60.3286H23.6789V48.4801H27.5984V60.3286ZM33.4264 60.3286H29.5671V48.4801H33.4264V60.3286ZM61.3264 27.9421V29.8017H30.0739C29.8129 29.8019 29.5626 29.9056 29.378 30.0902C29.1935 30.2748 29.0897 30.5251 29.0896 30.7861V38.1346C29.0896 38.3957 29.1933 38.646 29.3779 38.8307C29.5625 39.0153 29.8129 39.119 30.0739 39.119H61.3281V40.9792H25.6094V27.9421H61.3264ZM59.0764 31.771V37.1502H52.3388V31.771H59.0764ZM50.3656 31.771V37.1502H39.7692V31.771H50.3656ZM37.7959 31.771V37.1502H31.0583V31.7705L37.7959 31.771ZM12.6719 37.688H19.7875C20.0486 37.688 20.299 37.5843 20.4836 37.3997C20.6682 37.215 20.7719 36.9647 20.7719 36.7036V17.7322C20.7476 17.5126 20.6603 17.3048 20.5206 17.1338C20.3808 16.9627 20.1946 16.8357 19.9844 16.768L14.1406 15.5817L12.673 15.2836V11.8524L59.0821 19.648V25.9711H24.625C24.3635 25.9717 24.1129 26.0758 23.928 26.2607C23.7431 26.4456 23.639 26.6962 23.6384 26.9577V41.963C23.6384 42.0925 23.6639 42.2207 23.7135 42.3403C23.7631 42.4599 23.8358 42.5685 23.9275 42.66C24.0191 42.7515 24.1279 42.824 24.2476 42.8734C24.3673 42.9228 24.4955 42.9481 24.625 42.9479H55.1822V60.3292H35.3952V47.4957C35.3952 47.2346 35.2915 46.9843 35.1069 46.7997C34.9223 46.6151 34.6719 46.5113 34.4108 46.5113H16.8659C16.6048 46.5113 16.3544 46.6151 16.1698 46.7997C15.9852 46.9843 15.8815 47.2346 15.8815 47.4957V60.3286H12.6719V37.688ZM14.9354 17.7513L18.8031 18.5388V35.7192H15.0271L14.9354 17.7513Z" fill="currentColor"/>
<path d="M51.7892 54.1438C52.0503 54.1438 52.3007 54.04 52.4853 53.8554C52.6699 53.6708 52.7736 53.4204 52.7736 53.1594V47.4961C52.7736 47.235 52.6699 46.9846 52.4853 46.8C52.3007 46.6154 52.0503 46.5117 51.7892 46.5117H39.2871C39.026 46.5117 38.7757 46.6154 38.591 46.8C38.4064 46.9846 38.3027 47.235 38.3027 47.4961V53.1571C38.3027 53.4182 38.4064 53.6686 38.591 53.8532C38.7757 54.0378 39.026 54.1415 39.2871 54.1415L51.7892 54.1438ZM40.2715 48.4805H50.8049V52.175H40.2715V48.4805Z" fill="currentColor"/>
</symbol>
<symbol id="icon_rating" viewBox="0 0 73 72">
<path d="M51.4567 30.403L42.0776 29.0395L37.883 20.5413C37.8019 20.3765 37.6762 20.2377 37.5202 20.1407C37.3642 20.0436 37.1842 19.9922 37.0005 19.9922C36.8168 19.9922 36.6367 20.0436 36.4808 20.1407C36.3248 20.2377 36.1991 20.3765 36.1179 20.5413L31.9234 29.0395L22.5442 30.403C22.3624 30.4293 22.1916 30.506 22.0512 30.6243C21.9107 30.7426 21.8061 30.8979 21.7494 31.0726C21.6926 31.2473 21.6858 31.4343 21.7299 31.6127C21.7739 31.791 21.867 31.9534 21.9986 32.0815L28.788 38.7005L27.1832 48.038C27.1521 48.219 27.1723 48.4051 27.2415 48.5753C27.3107 48.7454 27.4261 48.8928 27.5747 49.0008C27.7233 49.1087 27.8991 49.173 28.0823 49.1862C28.2655 49.1995 28.4488 49.1612 28.6113 49.0758L37.0005 44.6663L45.3896 49.0763C45.5522 49.1618 45.7356 49.2001 45.9188 49.1869C46.1021 49.1736 46.278 49.1093 46.4266 49.0012C46.5752 48.8932 46.6906 48.7457 46.7597 48.5755C46.8289 48.4052 46.849 48.219 46.8178 48.038L45.2158 38.7005L52.0024 32.0815C52.1339 31.9534 52.227 31.791 52.2711 31.6127C52.3151 31.4343 52.3084 31.2473 52.2516 31.0726C52.1948 30.8979 52.0903 30.7426 51.9498 30.6243C51.8093 30.506 51.6385 30.4293 51.4567 30.403ZM43.4692 37.6492C43.3552 37.7606 43.2701 37.8981 43.2211 38.0498C43.1721 38.2015 43.1607 38.3628 43.188 38.5199L44.538 46.4067L37.4584 42.683C37.3171 42.6087 37.1598 42.5699 37.0002 42.5699C36.8406 42.5699 36.6833 42.6087 36.542 42.683L29.463 46.4067L30.813 38.5199C30.8402 38.3628 30.8289 38.2015 30.7799 38.0498C30.7309 37.8981 30.6457 37.7606 30.5317 37.6492L24.801 32.063L32.7182 30.9121C32.876 30.8895 33.026 30.8289 33.1551 30.7354C33.2843 30.6419 33.3888 30.5184 33.4595 30.3755L37.0005 23.2008L40.5442 30.3755C40.6147 30.5187 40.7191 30.6426 40.8483 30.7364C40.9775 30.8302 41.1276 30.8911 41.2856 30.9138L49.2 32.063L43.4692 37.6492Z" fill="currentColor"/>
<path d="M37 9.70312C31.799 9.70312 26.7148 11.2454 22.3903 14.1349C18.0658 17.0245 14.6952 21.1315 12.7049 25.9366C10.7145 30.7417 10.1938 36.0292 11.2084 41.1303C12.2231 46.2314 14.7276 50.917 18.4053 54.5947C22.083 58.2724 26.7687 60.7769 31.8697 61.7916C36.9708 62.8063 42.2583 62.2855 47.0634 60.2951C51.8685 58.3048 55.9755 54.9343 58.8651 50.6098C61.7546 46.2853 63.2969 41.201 63.2969 36C63.2894 29.0279 60.5165 22.3435 55.5865 17.4135C50.6565 12.4835 43.9721 9.71057 37 9.70312ZM37 60.3281C32.1884 60.3281 27.4848 58.9013 23.484 56.2281C19.4833 53.5549 16.3651 49.7554 14.5238 45.31C12.6824 40.8646 12.2006 35.973 13.1393 31.2538C14.0781 26.5346 16.3951 22.1998 19.7974 18.7974C23.1998 15.3951 27.5346 13.078 32.2538 12.1393C36.973 11.2006 41.8646 11.6824 46.31 13.5237C50.7554 15.3651 54.5549 18.4833 57.2281 22.484C59.9013 26.4848 61.3281 31.1884 61.3281 36C61.3207 42.4499 58.7552 48.6336 54.1944 53.1944C49.6336 57.7552 43.4499 60.3207 37 60.3281Z" fill="currentColor"/>
</symbol>
<symbol id="icon_savings-fill" viewBox="0 0 25 24">
<g clip-path="url(#clip0_1_1867)">
<path d="M20.08 7.5L17.81 5.23C17.88 4.81 17.99 4.42 18.13 4.08C18.21 3.9 18.25 3.71 18.25 3.5C18.25 2.67 17.58 2 16.75 2C15.11 2 13.66 2.79 12.75 4H7.75C4.71 4 2.25 6.46 2.25 9.5C2.25 12.54 4.75 21 4.75 21H10.25V19H12.25V21H17.75L19.43 15.41L22.25 14.47V7.5H20.08ZM13.25 9H8.25V7H13.25V9ZM16.25 11C15.7 11 15.25 10.55 15.25 10C15.25 9.45 15.7 9 16.25 9C16.8 9 17.25 9.45 17.25 10C17.25 10.55 16.8 11 16.25 11Z" fill="currentColor"/>
</g>

</symbol>
<symbol id="icon_savings" viewBox="0 0 73 72">
<path d="M47.5203 35.5498C48.1391 34.9311 49.1516 34.9311 49.7703 35.5498C50.164 35.9435 50.7828 35.9435 51.1765 35.5498C51.5703 35.1561 51.5703 34.5373 51.1765 34.1436C49.7703 32.7373 47.5766 32.7373 46.1703 34.1436C45.7766 34.5373 45.7766 35.1561 46.1703 35.5498C46.5641 35.9435 47.1266 35.9435 47.5203 35.5498Z" fill="currentColor"/>
<path d="M15.7379 33.581C13.9379 33.2998 12.6441 31.7248 12.6441 29.9248C12.6441 29.3623 12.1941 28.9123 11.6316 28.9123C11.0691 28.9123 10.6191 29.3623 10.6191 29.9248C10.6191 32.5685 12.4191 34.8185 15.0066 35.4373C12.6441 43.1435 16.1879 51.4685 23.4441 55.1248V60.0185C23.4441 60.581 23.8941 61.031 24.4566 61.031H32.2191C32.7816 61.031 33.2316 60.581 33.2316 60.0185V56.8123H40.8816V59.9623C40.8816 60.5248 41.3316 60.9748 41.8941 60.9748H49.6566C50.2191 60.9748 50.6691 60.5248 50.6691 59.9623V55.5748C55.3941 53.6623 58.9379 49.6123 60.2879 44.6623H62.4816C63.0441 44.6623 63.4941 44.2123 63.4941 43.6498V34.8185C63.4941 34.256 63.0441 33.806 62.4816 33.806H59.6129C58.5441 31.331 56.9129 29.1373 54.8316 27.4498V20.6435C54.8316 20.081 54.3816 19.6873 53.8191 19.631H52.7504C50.1066 19.631 47.8004 21.431 47.1816 24.0185C45.2129 23.681 43.9754 23.7935 42.7379 23.7935C43.8066 17.9435 39.9254 12.3185 34.0754 11.2498C27.4379 10.0123 21.3629 15.131 21.3629 21.881C21.3629 23.3998 21.7004 24.9185 22.3191 26.2685C19.3379 27.956 17.0879 30.5435 15.7379 33.581ZM31.9941 13.0498C39.7004 12.9935 43.6941 22.2748 38.4066 27.8435C34.6379 27.4498 30.4191 27.731 26.6504 28.7998C19.9566 23.681 23.6129 13.0498 31.9941 13.0498ZM23.1066 27.956C23.5004 28.5185 23.9504 29.081 24.4566 29.531C23.9504 29.756 23.5004 29.981 23.0504 30.2623C22.6004 30.5435 22.4316 31.1623 22.7129 31.6123C22.9941 32.0623 23.6129 32.231 24.0629 31.9498C28.2816 29.5873 36.5504 28.9685 41.5004 30.4873C42.0066 30.656 42.5691 30.3748 42.7379 29.8685C42.9066 29.3623 42.6254 28.7998 42.1191 28.631C41.6691 28.5185 41.2191 28.3498 40.7129 28.2935C41.2754 27.506 41.7254 26.7185 42.1191 25.8185C43.7504 25.8748 45.3254 25.6498 47.6879 26.2123C48.3066 26.381 48.8691 25.931 48.9254 25.3123C48.9816 23.2873 50.6691 21.7123 52.6941 21.7123H52.8066V28.0685C52.8066 28.3498 52.9754 28.6873 53.2004 28.856C55.3941 30.5435 57.0254 32.7373 57.9816 35.3248C58.1504 35.7185 58.4879 35.9435 58.8816 35.9435H61.4691V42.806H59.5004C59.0504 42.806 58.6566 43.1435 58.5441 43.5935C57.4754 48.431 53.9879 52.3685 49.3191 54.056C48.9254 54.2248 48.7004 54.5623 48.7004 54.956V59.006H42.7941V55.856C42.7941 55.2935 42.3441 54.8435 41.7816 54.8435H32.2191C31.6566 54.8435 31.2066 55.2935 31.2066 55.856V59.006H25.4691V54.506C25.4691 54.1123 25.2441 53.7748 24.9066 53.606C17.5379 50.231 14.2754 41.6248 17.5941 34.3123C18.7754 31.6685 20.6879 29.4748 23.1066 27.956Z" fill="currentColor"/>
<path d="M32.1625 24.9186H31.375C30.925 24.9186 30.5875 24.5811 30.5875 24.1311C30.5875 23.5686 30.1375 23.1186 29.575 23.1186C29.0125 23.1186 28.5625 23.5686 28.5625 24.1311C28.5625 25.6498 29.8 26.8873 31.3188 26.8873H32.1062C33.7937 26.8873 35.2 25.4811 35.2 23.7936C35.2 22.4998 34.3562 21.4311 33.1187 21.0936L31.2063 20.6436C30.8688 20.5873 30.5875 20.2498 30.5875 19.8561V19.5186C30.5875 19.0686 30.925 18.7311 31.375 18.7311H32.5C32.95 18.7311 33.2875 19.0686 33.2875 19.5186C33.2875 20.0811 33.7375 20.5311 34.3 20.5311C34.8625 20.5311 35.3125 20.0811 35.3125 19.5186C35.3125 18.1686 34.3 17.0436 33.0063 16.8186V16.3123C33.0063 15.7498 32.5562 15.2998 31.9937 15.2998C31.4312 15.2998 30.9812 15.7498 30.9812 16.3123V16.8186C29.6312 17.0436 28.675 18.1686 28.675 19.5186V19.8561C28.675 21.1498 29.5188 22.2186 30.8125 22.5561L32.725 23.0061C33.0625 23.1186 33.3438 23.3998 33.3438 23.7936C33.2875 24.4123 32.7813 24.9186 32.1625 24.9186Z" fill="currentColor"/>
</symbol>
</svg>